<?xml version="1.0" encoding="UTF-8"?>
<svg width="174px" height="23px" viewBox="0 0 174 23" version="1.1" xmlns="http://www.w3.org/2000/svg" xmlns:xlink="http://www.w3.org/1999/xlink">
    <title>Mob-01-3@2x</title>
    <g id="页面-1" stroke="none" stroke-width="1" fill="none" fill-rule="evenodd">
        <g id="Mob-PURE-POWER-FOR-ALL-活动页-1" transform="translate(-110, -168)">
            <g id="Mob-01-3" transform="translate(110, 168)">
                <path d="M3.41625151,8.84564392 L7.5731412,18.6713252 L11.7889628,8.84564392 L14.9311422,8.84564392 L9.01787461,22.6016479 L5.89525345,22.6016479 L0,8.84564392 L3.41625151,8.84564392 Z M20.4947812,8.84536832 L26.6046602,22.6018734 L23.2867144,22.6018734 L22.076422,19.654194 L15.7339034,19.654194 L14.523611,22.6018734 L11.2828687,22.6018734 L17.3737041,8.84536832 L20.4947812,8.84536832 Z M18.9146845,11.9706851 L16.7488711,17.2374227 L21.0807552,17.2374227 L18.9146845,11.9706851 Z M35.3190224,15.5955164 C35.8131243,15.1828664 36.0599179,14.5968382 36.0599179,13.8364296 C36.0599179,13.0642453 35.8131243,12.4704502 35.3190224,12.0578001 C34.8238911,11.6448995 34.1022964,11.4392009 33.1519223,11.4392009 L30.5759014,11.4392009 L30.5759014,16.2153684 L33.1519223,16.2153684 C34.1022964,16.2153684 34.8238911,16.0081665 35.3190224,15.5955164 M36.4799045,9.45512329 C37.3710894,9.86125913 38.0579425,10.4367644 38.5386625,11.1843951 C39.0196398,11.930272 39.2618012,12.8157032 39.2618012,13.8364296 C39.2618012,14.8453803 39.0196398,15.7270533 38.5386625,16.479695 C38.0579425,17.2333388 37.3710894,17.8103473 36.4799045,18.209969 C35.5892344,18.6098411 34.5382384,18.8090256 33.3279461,18.8090256 L30.5759014,18.8090256 L30.5759014,22.6017982 L27.4144212,22.6017982 L27.4144212,8.84579425 L33.3279461,8.84579425 C34.5382384,8.84579425 35.5892344,9.0487369 36.4799045,9.45512329 M62.9168789,12.0577751 C62.422777,11.645125 61.7001529,11.4394264 60.7508081,11.4394264 L58.1750446,11.4394264 L58.1750446,16.234886 L60.7508081,16.234886 C61.7001529,16.234886 62.422777,16.024928 62.9168789,15.6060143 C63.4120102,15.1865995 63.6593185,14.5968131 63.6593185,13.8364045 C63.6593185,13.0642203 63.4120102,12.4704251 62.9168789,12.0577751 L62.9168789,12.0577751 Z M63.717221,22.6017732 L61.0832976,18.7701658 L60.9268319,18.7701658 L58.1750446,18.7701658 L58.1750446,22.6017732 L55.0122776,22.6017732 L55.0122776,8.84551865 L60.9268319,8.84551865 C62.1371243,8.84551865 63.1873482,9.04871184 64.0780184,9.45484769 C64.9689459,9.86098353 65.655799,10.4364888 66.1383204,11.1841195 C66.6190404,11.9302469 66.8596577,12.8154276 66.8596577,13.8364045 C66.8596577,14.8583836 66.6151802,15.7400567 66.1287987,16.4794194 C65.640101,17.2205358 64.9468142,17.7870214 64.0494531,18.1801289 L67.114429,22.6017732 L63.717221,22.6017732 Z M78.50407,20.0472514 L78.50407,22.6020738 L67.9264289,22.6020738 L67.9264289,8.84556876 L78.2505854,8.84556876 L78.2505854,11.4003912 L71.0688656,11.4003912 L71.0688656,14.3871558 L77.4113842,14.3871558 L77.4113842,16.8638078 L71.0688656,16.8638078 L71.0688656,20.0472514 L78.50407,20.0472514 Z M81.7462535,22.1751927 C80.7374621,21.8893192 79.9268262,21.519262 79.3166618,21.063518 L80.3897894,18.7444598 C80.9752487,19.1626218 81.6711089,19.4983541 82.478142,19.7516566 C83.2851751,20.0059613 84.0906642,20.1319862 84.8976973,20.1319862 C85.7960878,20.1319862 86.4592652,20.0022031 86.8887736,19.7428875 C87.318282,19.4820686 87.5326502,19.1373166 87.5326502,18.7066272 C87.5326502,18.3906881 87.4060366,18.1278649 87.152552,17.9189091 C86.8977807,17.7097028 86.573269,17.541085 86.176186,17.4150601 C85.7793604,17.2880331 85.2425393,17.1484787 84.5662373,16.9971486 C83.5257925,16.7568745 82.6734667,16.5150972 82.0087452,16.274322 C81.3455678,16.0340479 80.7763212,15.6474547 80.3017775,15.1147929 C79.825947,14.5836344 79.5891899,13.8735856 79.5891899,12.9874027 C79.5891899,12.2142163 79.8040727,11.51444 80.2333238,10.8875727 C80.6625748,10.2604548 81.3092822,9.76337062 82.1755046,9.39581894 C83.0404403,9.02951998 84.0970978,8.84536832 85.3462492,8.84536832 C86.2176185,8.84536832 87.0709737,8.946088 87.9037413,9.14903065 C88.7354795,9.35147221 89.4647945,9.64235667 90.0891129,10.0226862 L89.1130043,12.3605354 C87.8507283,11.6642668 86.588967,11.3155061 85.326691,11.3155061 C84.4424545,11.3155061 83.7882841,11.4550605 83.3652093,11.7336681 C82.9421346,12.0117747 82.7316266,12.3793264 82.7316266,12.835321 C82.7316266,13.2908145 82.9758467,13.6308061 83.4632577,13.8522892 C83.950926,14.0740228 84.6956817,14.2917477 85.6977821,14.5069671 C86.7387416,14.7487445 87.5908101,14.9890186 88.2545022,15.2292926 C88.9189663,15.4700678 89.4879556,15.8503974 89.9624993,16.3702813 C90.4373003,16.888662 90.6750869,17.5926976 90.6750869,18.479131 C90.6750869,19.2392891 90.4563438,19.9330523 90.0209165,20.559669 C89.5849745,21.1870374 88.9308042,21.6843722 88.0591775,22.0504206 C87.1875509,22.4179723 86.1272905,22.6021239 84.8781391,22.6021239 C83.7983206,22.6021239 82.7535009,22.4598135 81.7462535,22.1751927 M93.917116,22.1751927 C92.9085819,21.8893192 92.0976886,21.519262 91.4875242,21.063518 L92.5606518,18.7444598 C93.1463685,19.1626218 93.8419713,19.4983541 94.6490044,19.7516566 C95.4560376,20.0059613 96.2615266,20.1319862 97.0685598,20.1319862 C97.9669503,20.1319862 98.6301277,20.0022031 99.0596361,19.7428875 C99.4891444,19.4820686 99.7035126,19.1373166 99.7035126,18.7066272 C99.7035126,18.3906881 99.576899,18.1278649 99.3234144,17.9189091 C99.0686431,17.7097028 98.7441314,17.541085 98.3470485,17.4150601 C97.9502229,17.2880331 97.4136591,17.1484787 96.7370997,16.9971486 C95.6966549,16.7568745 94.8443291,16.5150972 94.1796076,16.274322 C93.5164302,16.0340479 92.9471836,15.6474547 92.4726399,15.1147929 C91.9968095,14.5836344 91.7600523,13.8735856 91.7600523,12.9874027 C91.7600523,12.2142163 91.9749352,11.51444 92.4041862,10.8875727 C92.8334373,10.2604548 93.4801446,9.76337062 94.346367,9.39581894 C95.2113027,9.02951998 96.2679602,8.84536832 97.5171116,8.84536832 C98.388481,8.84536832 99.2418361,8.946088 100.074604,9.14903065 C100.906342,9.35147221 101.635657,9.64235667 102.259975,10.0226862 L101.283867,12.3605354 C100.021591,11.6642668 98.7598294,11.3155061 97.4975534,11.3155061 C96.6133169,11.3155061 95.9591465,11.4550605 95.5360718,11.7336681 C95.1132544,12.0117747 94.902489,12.3793264 94.902489,12.835321 C94.902489,13.2908145 95.1467092,13.6308061 95.6341201,13.8522892 C96.1217884,14.0740228 96.8665441,14.2917477 97.8686446,14.5069671 C98.9096041,14.7487445 99.7616725,14.9890186 100.425365,15.2292926 C101.089829,15.4700678 101.658818,15.8503974 102.133362,16.3702813 C102.608163,16.888662 102.845949,17.5926976 102.845949,18.479131 C102.845949,19.2392891 102.627206,19.9330523 102.191779,20.559669 C101.755837,21.1870374 101.101667,21.6843722 100.23004,22.0504206 C99.3584133,22.4179723 98.2981529,22.6021239 97.0490015,22.6021239 C95.969183,22.6021239 94.9243633,22.4598135 93.917116,22.1751927 M110.723066,8.84556876 C106.821205,8.84556876 103.658181,11.9250355 103.658181,15.7235707 C103.658181,19.522607 106.821205,22.6018233 110.723066,22.6018233 C114.62467,22.6018233 117.787694,19.522607 117.787694,15.7235707 C117.787694,11.9250355 114.62467,8.84556876 110.723066,8.84556876 M110.723066,11.7346202 C112.982296,11.7346202 114.820252,13.5240232 114.820252,15.7235707 C114.820252,17.9231183 112.982296,19.7127718 110.723066,19.7127718 C108.463837,19.7127718 106.625623,17.9231183 106.625623,15.7235707 C106.625623,13.5240232 108.463837,11.7346202 110.723066,11.7346202 M47.1350322,8.84556876 C43.2331711,8.84556876 40.0701468,11.9250355 40.0701468,15.7235707 C40.0701468,19.522607 43.2331711,22.6018233 47.1350322,22.6018233 C51.0366359,22.6018233 54.1996601,19.522607 54.1996601,15.7235707 C54.1996601,11.9250355 51.0366359,8.84556876 47.1350322,8.84556876 M47.1350322,11.7346202 C49.3942617,11.7346202 51.2322179,13.5240232 51.2322179,15.7235707 C51.2322179,17.9231183 49.3942617,19.7127718 47.1350322,19.7127718 C44.8758026,19.7127718 43.0375891,17.9231183 43.0375891,15.7235707 C43.0375891,13.5240232 44.8758026,11.7346202 47.1350322,11.7346202" id="形状结合" fill="#FFFFFF"></path>
                <path d="M139.466467,0.00380851613 C140.584115,0.0504101615 141.366443,0.377122772 141.813708,0.983445255 C142.08495,1.37204285 142.232923,1.82277596 142.256856,2.33564461 C142.280789,2.8487638 142.152889,3.42802726 141.87367,4.0729339 C141.594193,4.71809109 141.151046,5.42162561 140.544484,6.18303636 C139.937408,6.94494821 139.131404,7.76874504 138.125444,8.65492794 C137.949677,8.8105173 137.822034,8.90372059 137.742257,8.93478836 C137.661966,8.96610667 137.6141,8.95808918 137.598401,8.91148754 C137.582189,8.86488589 137.590166,8.79122522 137.622335,8.6897539 C137.654245,8.58903421 137.709832,8.48405524 137.790123,8.37506752 C138.109231,7.95540217 138.480579,7.44629172 138.903911,6.84773618 C139.326729,6.24943118 139.721753,5.6393505 140.089241,5.01749414 C140.456472,4.39563777 141.379311,2.7776086 140.734919,2.0908607 C139.543928,0.822093321 134.10752,3.79983824 129.42822,8.83933015 C126.957711,11.5001338 122.631231,17.1223968 125.724,20.0575488 C126.406478,20.7049609 127.573537,21.5395312 130.34128,21.2699432 C131.327939,21.1737334 132.245631,20.6986973 133.179535,20.3020822 C133.367049,20.22252 133.553111,20.1406157 133.737724,20.0563652 C133.63386,19.9052655 133.541683,19.7394252 133.459629,19.560214 C133.296215,19.2019326 133.187101,18.8178448 133.132801,18.406197 C133.077987,17.9953007 133.092141,17.6305051 133.173719,17.3120605 C133.582125,16.0387833 134.236295,14.9316184 135.135458,13.9898141 C136.03462,13.048511 136.960289,12.358506 137.914266,11.9210519 C138.867729,11.4833472 139.712592,11.3377797 140.44834,11.4833472 C141.183831,11.6291652 141.592495,12.1397789 141.674331,13.0151883 C142.246151,13.0683042 142.661505,13.2537086 142.920651,13.5721532 C143.179025,13.8903472 143.240531,14.1559265 143.104653,14.3678888 C142.88591,14.6332175 142.620845,14.97822 142.307656,15.4023952 C141.993953,15.8268209 141.700837,16.2645256 141.428824,16.7152588 C141.156296,17.1667435 140.944758,17.5844045 140.795498,17.9687428 C140.645466,18.3535822 140.638261,18.6389546 140.775168,18.8241085 C140.883767,19.010014 141.14909,19.0826725 141.571907,19.0430861 C141.993953,19.0032492 142.504782,18.8907539 143.104653,18.7045978 C143.703494,18.519444 144.371303,18.2739084 145.107309,17.9687428 C145.842543,17.6640783 146.578292,17.3258405 147.314041,16.9540296 C148.049275,16.5827197 148.76495,16.2048956 149.459266,15.8200562 L149.649053,15.7144678 C149.660783,15.683468 149.672546,15.6523445 149.68434,15.6210972 C149.929332,14.9714302 150.147303,14.3480706 150.337996,13.7512688 C150.528431,13.1542166 150.678206,12.630825 150.787834,12.1795908 C150.895919,11.7288577 150.923455,11.4104131 150.869413,11.2245076 C151.059333,11.1718928 151.311531,11.2047144 151.625492,11.3239745 C151.938423,11.4434852 152.231538,11.6163623 152.503809,11.841353 C152.77608,12.0668449 152.960081,12.3324241 153.055556,12.6370886 C153.150774,12.9425048 153.076144,13.2406551 152.830637,13.5325418 C152.639945,13.7450052 152.449252,14.029626 152.258817,14.3876569 C152.068125,14.7459384 151.884123,15.1174988 151.70707,15.5018371 C151.529502,15.8866765 151.359654,16.2579864 151.196241,16.6157668 C151.032827,16.9740482 150.895919,17.2594207 150.787834,17.471383 C151.087126,17.1529384 151.468254,16.7290138 151.931989,16.1981058 C152.394695,15.6679494 152.864864,15.1307778 153.341724,14.5865908 C153.818069,14.043406 154.254268,13.539056 154.649292,13.0747933 C155.044317,12.6110318 155.32405,12.286073 155.487464,12.099917 C155.841313,11.7288577 156.126966,11.6561992 156.345709,11.8809394 C156.563423,12.1066817 156.808672,12.3524678 157.080943,12.6172955 C157.543906,13.0685297 158.28686,13.4197958 159.308519,13.6715951 C159.914344,13.8212045 160.575186,13.8751385 161.291153,13.8333448 C161.498927,13.5878201 161.716628,13.355937 161.944218,13.1345487 C162.543059,12.5512765 163.176385,12.0937786 163.844452,11.7618045 C164.511489,11.4303315 165.158454,11.3040561 165.785603,11.3837299 C166.112688,11.4370963 166.44595,11.5230337 166.786932,11.6422938 C167.127399,11.7618045 167.426948,11.9209015 167.685579,12.1198354 C167.944211,12.3187693 168.128212,12.5575401 168.237584,12.8358973 C168.346183,13.114505 168.346183,13.4266859 168.237584,13.7709367 C168.073913,14.3020953 167.760724,14.78565 167.298018,15.2233547 C166.834283,15.6608088 166.296433,16.0456482 165.683437,16.3771212 C165.070185,16.7090953 164.395942,16.9676593 163.66045,17.1530637 C162.924959,17.3389692 162.20285,17.4452009 161.49438,17.4712577 C161.330966,18.0021657 161.283357,18.4000335 161.351553,18.6648611 C161.418978,18.9304404 161.562319,19.1093306 161.780804,19.2020328 C161.998518,19.294735 162.291634,19.3215435 162.659122,19.2817066 C163.026868,19.2418697 163.428583,19.1692112 163.865039,19.0629795 C164.627294,18.9036319 165.485797,18.6716259 166.439516,18.3664603 C167.392721,18.0617958 168.332544,17.7100285 169.259243,17.3121607 C170.185169,16.9142929 171.063744,16.4966319 171.895225,16.0589272 C172.725934,15.620972 173.400177,15.217091 173.917955,14.8452801 C174.000305,14.7395494 174.020378,14.7593426 173.97946,14.9049101 C173.938542,15.0512293 173.904315,15.1506962 173.877037,15.2035615 C172.869017,16.1849521 171.745193,17.0671262 170.505563,17.8493324 C169.265419,18.6320396 168.060273,19.2877197 166.889097,19.8186277 C165.717149,20.3492851 164.647625,20.7268587 163.681038,20.9526011 C162.713422,21.1778423 162.012157,21.2114156 161.575958,21.052068 C161.221851,20.9190278 160.887818,20.7140808 160.575144,20.4354731 C160.261698,20.1568654 160.003067,19.8386714 159.79822,19.4803899 C159.594146,19.1226096 159.45132,18.7512997 159.369484,18.3664603 C159.287648,17.982122 159.287648,17.6173263 159.369484,17.2723238 C159.559404,16.5560114 159.886747,15.8336859 160.350225,15.103844 C160.446286,14.9525111 160.545284,14.8043171 160.647222,14.659262 C160.223692,14.7310339 159.790617,14.7657315 159.349437,14.7657315 C158.654606,14.7657315 158.000436,14.6863083 157.387698,14.5269607 C156.774445,14.3678637 156.331298,14.1290929 156.059284,13.8106484 C155.868592,13.5989366 155.513971,13.7512688 154.996708,14.2683968 C154.479187,14.7857753 153.914058,15.442207 153.300806,16.2376921 C152.688068,17.0336783 152.080992,17.8492071 151.482151,18.6847796 C151.282279,18.9633038 151.097592,19.2189447 150.928068,19.4517395 L150.609235,19.8868786 C150.410151,20.1566783 150.238003,20.3859067 150.092746,20.5746517 C149.847754,20.8665383 149.615629,20.9787832 149.397915,20.9128894 C149.179687,20.8464946 148.989509,20.7142061 148.826095,20.5150216 C148.662682,20.3160877 148.525774,20.1103891 148.416917,19.8984267 C148.30806,19.6857128 148.253761,19.5531737 148.253761,19.5003084 C148.253761,19.4471925 148.321442,19.2219512 148.457835,18.8240834 C148.59397,18.4259651 148.770766,17.9554388 148.989509,17.4117529 C149.063759,17.2264195 149.139624,17.0348791 149.217106,16.8371218 L149.193687,16.8545626 C148.321288,17.5310381 147.388413,18.1814568 146.394291,18.8040648 C145.399396,19.4271739 144.418655,19.9445523 143.452068,20.3559497 C142.484709,20.7665954 141.659919,20.9389713 140.9795,20.8730776 C140.298051,20.8064322 139.835088,20.4353729 139.590095,19.759148 C139.345103,19.0826725 139.453188,17.9624791 139.916923,16.3970647 C139.671674,16.8214905 139.330692,17.2860036 138.895007,17.7896021 C138.459323,18.2939521 137.995845,18.7644784 137.50586,19.2019326 C137.015619,19.6396373 136.538244,20.0109472 136.075538,20.3161128 C135.611803,20.6207773 135.217293,20.7866391 134.890208,20.8134475 C134.763287,20.8244597 134.641421,20.8107254 134.524515,20.772188 C134.16581,20.99939 133.80141,21.2159111 133.430961,21.4215239 C132.52099,21.926375 131.594549,22.3227395 130.652924,22.610868 C129.710528,22.8982448 128.784601,23.0265246 127.87463,22.9954568 C127.235901,22.9488552 126.596656,22.8087997 125.958441,22.5757915 C125.319712,22.3425327 124.732708,22.031354 124.198203,21.6430069 C123.662926,21.2541588 123.199963,20.8071839 122.808799,20.3020822 C122.417635,19.7967299 122.150254,19.2645692 122.006655,18.7048484 C121.799235,17.818916 121.835006,16.8315123 122.114225,15.7436395 C122.393444,14.6552656 122.84843,13.5400832 123.479439,12.3975913 C124.109934,11.2548488 124.880681,10.1123568 125.790652,8.96986487 C126.700881,7.82712237 127.678791,6.75453289 128.72464,5.75184587 C129.770489,4.74915886 130.840528,3.84769262 131.933986,3.04694607 C133.027701,2.24645006 134.085646,1.61281801 135.107819,1.14630047 C136.895593,0.338288068 138.348561,-0.0427931292 139.466467,0.00380851613 Z M140.816086,13.0550252 C140.298051,13.0815832 139.780273,13.2406802 139.263268,13.5323163 C138.745233,13.8244535 138.241352,14.1824844 137.750853,14.606409 C137.260611,15.0313359 136.810772,15.4818184 136.402366,15.95936 C135.99396,16.4369016 135.646287,16.8881358 135.360377,17.3120605 C135.073952,17.7367368 134.855724,18.1080466 134.706464,18.4259901 C134.556432,18.7444347 134.508309,18.9433686 134.563123,19.0230424 C134.644701,19.1821394 134.842342,19.1959195 135.155788,19.0628793 C135.468719,18.9303402 135.836722,18.7045978 136.259025,18.3861532 C136.681585,18.0679592 137.130909,17.6838715 137.608026,17.2326372 C138.084371,16.7819041 138.540901,16.3111273 138.976843,15.8200562 C139.41227,15.3294862 139.794427,14.8391667 140.121255,14.3478451 C140.44834,13.8572751 140.679178,13.4265857 140.816086,13.0550252 Z M166.255515,12.5177032 C165.887769,12.6109065 165.43793,12.8358973 164.907028,13.1941787 C164.375354,13.5522097 163.823864,14.0295007 163.251787,14.626553 C162.679452,15.2233547 162.216232,15.8935665 161.86264,16.6356852 C162.29781,16.5299546 162.774412,16.3440491 163.292705,16.0787204 C163.809968,15.8138927 164.307415,15.5017118 164.784275,15.1436809 C165.260877,14.78565 165.676489,14.4013117 166.030595,13.9896638 C166.384444,13.5790181 166.616312,13.174135 166.725426,12.7762672 C166.779983,12.5114396 166.62326,12.4252516 166.255515,12.5177032 Z" id="形状结合" fill="#00FF00"></path>
            </g>
        </g>
    </g>
</svg>