<?xml version="1.0" encoding="UTF-8"?>
<svg width="37px" height="38px" viewBox="0 0 37 38" version="1.1" xmlns="http://www.w3.org/2000/svg" xmlns:xlink="http://www.w3.org/1999/xlink">
    <title>Mob-01-2@2x</title>
    <g id="页面-1" stroke="none" stroke-width="1" fill="none" fill-rule="evenodd">
        <g id="Mob-PURE-POWER-FOR-ALL-活动页-1" transform="translate(-237, -209)">
            <g id="编组-33" transform="translate(22.9669, 206)">
                <g id="Mob-01-2" transform="translate(214.328, 3.22)">
                    <ellipse id="椭圆形" fill="#002F6F" cx="17.9345488" cy="19.78" rx="17.9345488" ry="17.94"></ellipse>
                    <path d="M4.59292561,20.9158498 L12.529028,25.0909788 L9.8857168,25.9198192 C10.7174653,27.0704683 11.7835165,28.030813 13.0132752,28.7372581 C16.6884695,30.854468 21.2874965,30.4663843 24.5580989,27.7630613 L25.0392618,27.3641046 L25.2150713,31.7093314 L30.4369218,31.4526383 L29.8508901,32.0155075 C26.070854,35.6994918 20.7903624,37.3994193 15.5780489,36.6103059 C10.3657355,35.8211926 5.82118201,32.6338116 3.29440283,27.9950129 L0.459860225,28.8857071 L2.26113648,25.3909695 L4.59292561,20.9158498 Z M21.8870283,3.19783953 L22.6735445,3.41742038 C29.9223611,5.48914736 34.9287693,12.1209627 34.9493771,19.6787746 C34.9530054,22.7909843 34.0956384,25.8432132 32.4726107,28.4960284 L34.6594341,30.5093684 L30.7391907,30.6949297 L25.7054872,30.9052325 L25.3476995,21.9364369 L27.3833884,23.8136986 C27.9621854,22.5127383 28.2586646,21.103303 28.2531827,19.6787746 C28.2394015,15.4296691 25.6053155,11.6322751 21.6371938,10.1409244 L21.0542465,9.92443621 L24.7215709,7.60492011 L21.8870283,3.19783953 Z M18.95687,0 L21.0820059,3.30608361 L23.7839203,7.56780785 L16.2056056,12.3707525 L16.822481,9.66155771 C15.4084927,9.80745584 14.0416572,10.2534015 12.8127907,10.9697648 C9.1473048,13.1049725 7.18226732,17.2919288 7.87778728,21.4849044 L7.9826561,22.1034421 L4.14260655,20.0777313 L1.75221425,24.741505 L1.55481411,23.9528696 C0.253743971,18.8265215 1.42316956,13.385066 4.71440407,9.250978 C8.00563859,5.11688998 13.0384599,2.76776285 18.3122352,2.90403415 L18.95687,0 Z" id="形状结合" fill="#00B43D" fill-rule="nonzero"></path>
                </g>
            </g>
        </g>
    </g>
</svg>